<?xml version='1.0' encoding='utf-8'?>
<svg xmlns="http://www.w3.org/2000/svg" enable-background="new 0 0 2626.995 1571.261" version="1.1" viewBox="0 0 2627 1571.3"> <g transform="matrix(1.0353 0 0 1.0353 -230.67 -382.44)"> </g> <path d="m1930.8 544.78c-0.879-1.575-0.531-0.886-1.584-3.14 0.135-0.012 7.753-0.701 7.888-0.715 0.915-4.607 0.676-3.418 1.095-5.466 0.307-0.146 0.364-0.223 0.687-0.497l0.358-0.588-0.608-1.904c0.277-1.916 0.249-2.446 0.331-4.594l-0.072-3e-3 0.077-9e-3c-0.126-1.924 4.645-9.082-3.897-12.951-0.728-0.763-0.572-0.646-1.329-1.035l-3e-3 0.023c-0.546-0.179-0.365-0.133-0.834-0.215-5.264-16.512-4.44-15.041-5.905-15.955-2.182-0.594-5.579 0.12-8.047 0.535l-0.396 0.22c-0.296 0.293-0.195 0.175-0.468 0.55-0.026 1.842-0.492 3.037-1.071 4.346l-0.198-0.167-1.04-0.333c-9.171-28.029-7.978-24.355-8.312-26.395l0.013-0.093c0.474-0.308 0.397-0.25 0.633-0.488l0.059-0.157 0.06-0.019-0.024-0.076 0.016-0.041-0.038-0.029-0.315-0.986c0.723-1.581 0.045-0.167 2.207-3.95l-0.038-0.043 0.062-0.077 0.241-0.968c-0.056-0.95 0.305 0.728-3.104-12.658l-0.316-0.557-0.593-0.584-0.962-0.358c-1.145-0.078-0.424-0.102-3.566 0.175l-1.031-3.279c1.67-0.641 3.234-1.161 4.344-2.298l-0.024-0.074 0.14-0.045-0.194-0.126-0.289-0.907 1.016-0.326 1.128-1.867c0.189-0.06 0.118-0.038 0.391-0.124l-0.227-0.149c0.067-0.111 0.06-0.099 0.087-0.139l-0.529-1.605 0.097-0.031-0.136-0.089-0.019-0.06-0.143-0.044-0.269-0.175c-1.186-0.079-1.788-0.726-3.057-0.609-0.041-0.128-0.031-0.098-0.059-0.183l-6.573-0.627 2.071-6.82c-0.031-0.051-5.511-9.177-5.539-9.23l-0.289-0.11c-0.766 0.04-1.632 0.1-3.35 0.59-0.2-0.635-2.525-8.036-6.007-19.443l48.514-9.204c26.403-10.128 45.343-21.712 59.599-36.454 49.82-51.494 59.447-71.433 73.084-117.98 1.924-6.544 3.88-13.304 2.584-19.819 0.169 0.064 0.513 0.194 0.669 0.252 0.015-0.034 1.24-2.884 1.254-2.918l-0.024-10.706 4.037-5.329c33.35-18.255 31.92-17.258 38.529-19.962 2.727-3.964 1.823-2.878 4.007-4.946l2.404-1.146c4.913 1.226 2.609 0.34 10.369 4.144l3.653 3.519 4.46 8.021c-0.75 14.875-0.064 9.247-3.012 24.677-2.902 11.677-1.671 8.315-5.634 15.697-9.813 9.951-2.91 3.219-14.247 12.037l-3.817 9.932-0.724 10.742 3.569 12.552c6.572 9.962 2.481 3.876 9.117 13 0.052 0.014 4.299 1.129 4.35 1.143 0.097-0.031 4.291-1.381 4.388-1.411 4.247-17.799-2.152-3.905 3.602-43.319 8.921-26.254 18.246-53.017 3.498-75.138l-6.996-2.048 10.356-5.502 0.546 6.819c3.371 7.982 5.566 16.942 7.448 24.079-2.165 53.559-30.584 78.914 12.007 142.8 0.037 5e-3 2.06 0.276 2.097 0.283 0.061-0.017 3.753-1.062 3.814-1.08 0.028-0.041 1.828-2.653 1.856-2.695 3e-3 -0.046 0.165-3.073 0.17-3.119-5.71-11.383-5.735-6.209-13.041-25.746-3.253-8.161-7.293-15.387-5.938-41.05 8.078-33.311 7.343-16.396 14.456-49.051 2.727-25.49 1.531-14.261-2.389-45.018 4.545-51.346 7.214-46.278 1.573-78.524l-0.185 0.068c-3.388-12.408-1.943-7.532-4.799-16.292-0.046-0.047-5.221-5.336-5.268-5.382-14.735-1.288-8.538-1.03-20.719-0.477-0.05 0.033-6.501 4.294-6.552 4.326-4.51 12.909-1.288 5.435-15.141 34.51l-7.666 9.892-10.532 7.195c-43.715 5.784-37.136-4.722-92.867-6.58-0.105 0.084-3.824 3.056-3.93 3.139l0.228 0.574c-12.07-5.322-22.777-7.057-70.849-10.801-1.366-1.522-5.269-6.363-12.825-11.054-0.016-0.076-1.532-7.376-1.546-7.453l-0.79-0.48-0.015-0.064-0.069 0.013-0.188-0.113 0.03 0.146-7.675 1.606c-0.977-0.642-0.552-0.438-1.865-0.897-2.131 0.098 0.084-0.116-8.61 1.6l2.776 13.419c-0.744 0.12-1.475 0.272-2.196 0.456-0.038-0.183-2.739-13.24-2.776-13.42l-12.037 2.494-1.099 0.582-0.802 1.202-1.144 3.961c-3.776 5.766-2.237 3.898-6.742 8.187-7.201 2.474 7.655-0.872-111.71 23.845l-6.739-1.052c-0.056-0.174-2.304-7.227-2.36-7.399-0.173 0.055-50.077 15.984-50.25 16.038 23.284 72.969 18.265 56.149 34.304 112.29l12.255-3.911c-0.083 0.027-11.97 3.892-12.052 3.919-4.71 10.766-5.04 18.952 5.765 23.192 1.845 4.865 1.06 2.57 3.486 10.317-0.209 0.011-44.583 2.303-44.792 2.315l0.268 1.458c1e-3 0 0.088 0.011 0.089 0.011l-0.016 0.147-748.59 32.684c-0.053-0.175-8.985-29.39-9.039-29.564 0 0 0.041-0.021-1.246 0.373-0.012-0.04-0.025-0.079-0.037-0.119l2.291-0.74-2.653-8.855c-0.475 0.129-1.088 0.296-2.403 0.657-51.3-165.9-42.231-148.93-56.468-162.26-9.453-8.813-20.936-16.525-32.232-23.724 3.055-0.909 6.273-1.311 15.415-9.657l0.259-3.575c60.653-6.453 55.5-14.945 86.413-27.975 9.967-3.285 3.984-2.267 29.369-4.211 0.043 0.029 3.324 2.214 3.368 2.242l21.946 0.542 16.399-6.174c4.44 0.89 33.028 6.615 37.35 4.944 3.139-1.219 14.035-12.798-3.623-24.012-22.052-14.001-57.646-11.562-122.55-11.618-178.79 3.105-119.08 0.693-224.75-2.495-15.649 0.364-65.49 0.201-74.518 13.03-1.237 1.756-1.178 4.157-1.411 6.208-0.219 2.008-0.882 4.285 0.012 6.167 2.358 4.969 12.135 3.434 16.604 4.071 13.038 1.874 43.743 9.354 56.201 12.588l26.713 17.76 4.935 0.848c3.568 3.719 7.366 6.419 14.338 11.73 18.562 6.772 17.069 5.349 54.13 1.91 0.019 0.068 1.104 3.895 1.123 3.963 8.655 5.326 11.863 5.796 19.692 6.246 28.432 45.602 13.607 7.63 70.904 195.02-0.48 0.149-0.984 0.303-1.44 0.446-10.863-5.195-13.802-1.473-11.585 9.121 1.323 6.326 6.518 13.249 15.203 1.254l8.49 27.768-0.557 0.915c-7.359 1.329-34.214 11.494-43.879 88.776-1.312 10.484-16.705 31.721-23.011 39.651-1.439-0.679-1.136-0.537-1.813-0.761l-0.39 0.028-7.45 7.397-0.09-0.056 0.046 0.099c-0.086 0.085-0.077 0.076-0.107 0.106 3e-3 0.273 0.082 6.726 0.086 7.113-0.12-0.018-6.21-0.942-6.33-0.961l-0.201 0.322c-0.518-0.247-0.298-0.165-1.042-0.383l-2.137 0.345c-0.173-0.108-0.109-0.068-0.355-0.223l0.038 0.274-0.154 0.025-0.886 1.437-0.089-0.056 0.023 0.164-0.036 0.056 0.065 0.153 0.038 0.272c0.718 1.004 0.586 1.857 1.519 2.764-0.06 0.095-0.369 0.591-0.429 0.686 0.901 1.455 2.215 2.286 3.648 3.314l-1.487 2.349c-0.806-0.283-0.231-0.076-2.784-1.014l-1.344-0.076-0.985 0.369-0.721 0.678c-6.186 10.934-5.115 9.374-6.17 11.718 0.589 3.723 0.357 1.03 1.321 5.737l-0.274 1.671c-0.846 1.866 0.989-1.221-12.496 20.213l-0.034 5e-3 -0.675 1.082-1.42-0.9 0.767-1.205-1.184-1.096c-6.348-3.166-12.261-4.3-16.318-4.068-2.713 0.988-1.734 0.538-4.293 1.974-0.025 0.04-3.988 6.423-4.013 6.462-0.139 2.887-0.167 1.818 0.12 4.688l-0.549 0.896c-0.492 10.983-0.301 8.097-0.83 13.222-0.374 0.599-4 6.383-4.332 7.007l0.148 0.62c0.587 0.62 0.066 0.124 2.896 2.648-0.618 4.106-0.243 2.149-1.727 8.822-338.21-161.59-731.19 86.758-731.19 461.78 0 282.01 229.43 511.45 511.45 511.45 187.13 0 351.08-101.04 440.24-251.42 2.576-7e-3 5.135 0.555 7.391 1.695 5.998 6.117 10.842-3.903 21.912 1.476 7.309 4.259 10.621-4.126 21.119 0.966 1.943 1.921 5.016 2.61 7.548 1.441 9.216-4.68 15.323 1.061 18.733 1.061 2.374 0 8.718-3.545 16.217 0.863 5.527 6.416 11.241-3.124 21.776 2.867 3.948 2.643 7.552 2.003 9.884-0.646 3.445-0.973 7.22-0.763 10.421 0.661 1.904 1.78 4.79 2.284 7.098 1.126 9.821-5.38 14.719 2.625 20.056-0.226 3.952-2.286 8.968-2.688 13.146-1.084 6.312 5.248 9.22-4.982 21.175-0.401 6.402 3.128 8.799-5.946 19.388-3.783 7.004 4.075 8.606-6.157 20.02-4.043 9.151 2.46 7.363-7.57 19.116-8.107 8.107 2.462 6.166-8.239 19.925-8.804 7.721-0.694 4.486-9.202 15.275-12.392 8.032 0.379 4.827-9.538 15.841-12.951 9.577-2.206 2.973-10.05 13.314-16.113 7.88-1.481 2.505-10.451 12.359-16.357 4.163-2.097 5.243-5.639 3.796-8.858 0.216-3.69 1.745-7.304 4.283-9.891 7.264-3.67-0.604-11.147 7.852-19.376 6.352-4.512-1.807-10.534 5.018-19.663 1.831-2.115 2.993-4.574 1.836-7.178 23.943-0.62 60.477-0.261 93.12 2.571 28.981 36.015 27.56 36.404 35.856 35.631 4.511-0.435 5.609 0.259 11.502-0.849 0.201 1.091 0.056 2.38-0.091 3.563-0.988 8.025 3.807 2.789 15.335-1.338 5.935-2.124 9.455-3.362 5.586-9.981-0.484-0.825-1.089-1.496-1.803-2.02 3.505-6.12 2.711-15.263 2.244-21.478-0.444-6.168-8.431-14.54-13.047-18.591-0.051 1.043-0.042 2.376 0.292 4.584-3.295-5.598-7.366-11.98-11.747-18.304-10.314-14.874-26.731-47.353-32.925-50.762-1.601-0.878-3.794-1.431-6.311-1.699-9.589-5.293-26.856-10.033-41.374-8.556-2.868 9.615-8.893 32.25-2.31 39.963-48.695 0.839-37.58 0.815-55.081 0.362-3.137-6.846 0.066-9.487-1.452-13.2-0.695-1.753-5.656-6.611-3.911-14.4 2.674-8.802-4.825-6.513-7.925-15.907 7e-3 -0.744-0.14-1.353-0.481-1.806-0.324-1.661-0.148-1.768-0.329-3.267-0.401-5.174-8.009-6.405-7.944-16.298 0.772-9.446-6.824-5.267-11.59-14.744 144.54-152.82 228.16-244.71 473.74-504.36l0.782 0.5 26.597-27.806 3.27 10.427c-0.048 0.016-0.21 0.068-0.255 0.082-7.981 9.691-1.997 19.442 6.432 19.969l3.743-1.205c15.419 48.323 11.458 37.535 18.997 53.816-159.49 86.688-268 255.76-268 449.7 0 282.01 229.44 511.45 511.45 511.45s511.45-229.44 511.45-511.45c0-343.15-333.78-590.62-662.67-488.62zm-1091.5-473.42c-6.625-1.797-14.317-1.064-20.576 1.966-2.059 0.998-4.657 4.733-4.925 5.125-0.097 0.043-11.998 5.244-12.095 5.285l-0.384 3.726c-38.75 2.981-28.25 2.937-41.512 1.45-7.485-3.884-9.696-4.54-17.836-12.515l0.49-1.319c10.796 2.215 3.977 1.839 31.656 1.364 70.435-21.678 89.129-19.458 176.53-23.186-13.888 2.912-34.753 17.224-60.244 24.783-5.064 1.502-16.141 2.977-30.096 4.404-0.036-0.097-1.748-4.737-1.783-4.835l-13.876-2.404c-0.333-0.334-3.306-3.291-5.346-3.844zm655.69 1102.6c-0.399 2.4-2.599 8.759-5.554 10.383 2.34-2.786 4.298-6.858 5.554-10.383zm-14.8 11.909c-0.605-0.026-1.055-0.062-1.246-0.08l-3.938-4.802c2.15 2.151 3.914 3.818 5.184 4.882zm-13.676-1.9c6.862 8.164 4.763 6.843-4.192 1.606-5.053-2.944-9.617-11.998-10.38-13.568 3.143-1.773 5.042 0.611 14.572 11.962zm-140.57-88.601c-6e-3 0.376-0.05 0.75-0.084 1.124-5e-3 -0.373 0.025-0.748 0.084-1.124zm1.259 75.375c-0.353 1.213-0.846 2.377-1.481 3.464 0.098-1.318 0.645-2.463 1.481-3.464zm-6.843 20.671c0.197-0.815 0.551-1.514 1.043-2.098-0.299 0.725-0.639 1.429-1.043 2.098zm0.013-114.95c0.553 1.477 0.931 3.077 0.869 4.867-1.284-1.431-1.434-3.024-0.869-4.867zm647.23-486.63c19.133-4.932 38.754-8.631 58.761-11.06-3.655 2.583-3.475-14.419 11.933 244.61-76.423-195.59-86.398-223.13-89.624-226.96 7.716 2.824 8.07 2.826 15.502 0.063 1.803-0.828 1.634-0.688 2.863-2.175l0.536-1.242c0.084-2.813 0.084-2.156 0.029-3.235zm154.14-12.68c29.179 2.527 57.593 7.773 84.964 15.534-5.558 0.822 0.298-18.497-78.292 347.75l-30.598 35.288-23-58.864c53.11-355.46 52.189-337.05 46.926-339.71zm89.366 16.835c27.855 8.204 54.622 18.97 80.008 32.061-4.235 0.766 5.032-17.77-115.4 259.84l-32.334 37.29c74.19-345.75 71.37-326 67.726-329.19zm85.984 35.218c23.248 12.426 45.308 26.79 65.955 42.891-3.214 0.353 7.391-10.778-163.3 186.07 104.35-240.55 98.838-225.66 97.345-228.96zm72.006 47.71c21.645 17.47 41.684 36.852 59.832 57.913-2.814-0.051 14.818-12.367-257.5 188.61l13.723-31.633c195.16-225.08 184.37-211.28 183.94-214.89zm65.176 64.232c18.606 22.392 35.116 46.58 49.241 72.259-2.997-0.394 16.937-12.312-292.6 184.44l-53.156 3.214 24.937-57.483c288.31-212.78 271.07-199.09 271.58-202.43zm-538.71 177.06c-233.93-100.2-218.89-94.164-221.13-93.893 12.162-23.599 26.326-46.001 42.247-67.005 0.489 2.872-10.607-7.805 178.88 160.9zm80.372 34.428-48.456-20.756c-215.54-191.9-202.34-181.29-205.89-180.97 17.28-21.988 36.546-42.339 57.489-60.83-0.297 3.194-12.775-14.47 196.86 262.55zm-80.679-250.36 145.69 278.21-44.574-19.093c-221.8-293.1-207.7-276.09-211.58-276.27 21.811-18.63 45.375-35.26 70.424-49.585-2.184 4.049-2.637 1.25 40.04 66.743zm-34.91-69.615c0.426-0.236 0.848-0.479 1.275-0.714l0.483 1.098c-0.561-0.226-1.155-0.349-1.758-0.384zm29.047-87.132 6.373-2.035 0.049 0.154 0.108-0.204 0.062-0.02-0.019-0.061 0.054-0.102c0.023 0.071 0.149 0.467 0.171 0.535l0.387 0.201 0.021 0.064 0.063-0.02 0.208 0.108-0.05-0.158 2.342-0.747c0.44 1.379 0.313 1.02 0.572 1.65 0.04 0.044 0.569 0.626 0.611 0.667l0.867 0.177 4.672-1.358c-0.208 3.314 0.615 4.912 2.437 7.522l0.426 0.331c-5.931 2.142-11.808 4.396-17.636 6.748-8.498-18.483-6.96-15.76-12.739-24.462l1.248-0.572-4.059-8.825 1.254-0.401c0.339 1.054 3.055 9.563 3.172 9.921 3.273-1.048 1.926-0.617 4.874-1.556 0.103 0.324 3.796 11.916 3.903 12.239l0.39 0.208 0.021 0.065 0.063-0.02 0.208 0.111-0.053-0.16zm2.005-29.152-0.253 0.091-0.181 0.326-1.532-4.806 0.53 0.201c1.697-0.088 2.319-0.926 3.352-0.027 0.329 0.584 0.686 1.864 0.698 2.232-0.033-0.061-1.021-1.916-1.053-1.976-0.084-0.03-1.299-0.464-1.382-0.496-0.069 0.045-1.137 0.749-1.207 0.792-8e-3 0.058-0.192 1.296-0.197 1.354l1.225 2.309zm164.15 411.72-2.123-35.691 10.058 25.741-2.689 18-5.246-8.05zm2.793 24.463-0.49 3.278-0.762-1.83-0.221-3.707 1.473 2.259zm0.573 123.62 2.375 5.632-11.481 9.022 2.974-14.287 6.132-0.367zm6.811 16.151 0.014 0.033-21.214 23.852 1.798-8.639 19.402-15.246zm-17.527-66.08c-0.75 0.099-1.488 0.347-2.17 0.771l-1.957-2.586 5.822-2.439c-0.646 1.376-1.234 2.785-1.695 4.254zm-10.988-10.882-10.411-13.758 22.363 4.618 0.24 4.032-12.192 5.108zm-10.406 93.54 12.995-31.588 1.588-0.095-5.033 24.179-9.55 7.504zm6.066 9.239-3.036 14.586-23.872 26.841 12.329-29.971 14.579-11.456zm-48.497-68.701 39.84-16.691 5.444 4.847-22.577 14.609-22.707-2.765zm8.276 12.104-12.851 8.316-51.5 3.073 35.554-14.896 28.797 3.507zm17.781-63.32 16.293 21.531-0.372 0.156-26.905-23.955 10.984 2.268zm-27.429-16.909-29.587-26.342 35.935 15.393 10.995 14.53-17.343-3.581zm55.189 63.879 2.134 1.9-3.589 8.724-12.593-1.534 14.048-9.09zm-28.479 18.429 22.677 2.762-0.143 0.346-30.114 1.797 7.58-4.905zm7.003-75.347-6.929-9.156 34.821 14.915-27.892-5.759zm-95.216-46.974 39.942 35.561c-337.08-69.602-319.09-66.194-321-65.726 7.578-27.316 17.626-53.612 29.894-78.634 1.377 2.393-14.997-5.212 251.16 108.8zm56.387 50.202 37.205 33.125-52.802 22.122c-354.88-43.225-335.85-41.178-337.62-40.636 1.738-29.377 6.24-58.02 13.28-85.664 1.734 1.653-18.166-2.889 339.94 71.053zm-36.116 63.843-46.708 19.568c-281.59 16.799-266.17 15.696-267.6 16.304-3.233-25.578-4.194-49.949-3.282-74.781 1.176 0.487-17.553-1.912 317.59 38.909zm-77.416 32.433c-1.906 0.799-216.15 90.532-216.91 90.917-8.31-24.793-14.554-50.523-18.525-76.989 1.101 0.138-13.845 0.943 235.43-13.928zm33.238-1.983 63.426-3.784-276.57 178.97c-13.127-22.841-24.328-46.921-33.411-72.007 0.836-0.172-11.099 4.765 246.56-103.18zm85.759-5.116 44.243-2.639-18.382 44.685-271.13 213.05c-17.849-20.274-33.955-42.116-48.042-65.32 1.062-0.64 290.51-187.96 293.31-189.77zm17.347 62.74-16.888 41.054-185.44 208.5c-18.895-14.932-36.576-31.33-52.899-49.002l255.22-200.55zm-29.571 71.883-93.762 227.92c-24.773-12.415-48.28-26.992-70.251-43.517l164.01-184.41zm22.154-24.908 32.052-36.038-66.664 320.3c-24.695-6.906-48.548-15.842-71.381-26.602l105.99-257.66zm46.742-52.555 30.456-34.243 21.977 52.118-42.774 334.64c-27.518-1.921-54.374-6.273-80.352-12.861l70.693-339.66zm54.122-60.851 7.927 3.5-2.932 22.937-12.053-18.501 7.058-7.936zm-5.511-73.87 1.516-1.749 1.743 2.675c-1.065-0.361-2.151-0.67-3.259-0.926zm8.349 117.18-1.747 13.668-16.649-39.483 0.911-1.024 17.485 26.839zm-14.727-131.04-7.119 5.254c-0.058-0.132-7.579-17.1-7.638-17.232l-0.675 0.106-0.777-1.867 1.354-9.059 14.855 22.798zm-12.403-39.211 1.687-11.285 13.539 34.651-15.226-23.366zm31.121 225.87 14.926 35.397 12.367 277.86c-23.145 2.338-45.27 2.848-67.567 1.828l40.274-315.08zm44.052-219.3-17.462 40.251 6.977-32.512 10.485-7.739zm-6.995-8.527 0.553-2.578 22.533-25.987-7.355 16.955-15.731 11.61zm23.331 68.54-28.749-3.72 0.224-0.516 38.888-2.351-10.363 6.587zm8.6 12.218-20.207 8.213 14.153-8.996 6.054 0.783zm-41.911-5.423 18.795 2.432-16.157 10.27-5.883-5.22 3.245-7.482zm2.42 33.36 13.954 18.149-23.796-5.073-0.397-8.915 10.239-4.161zm24.311 31.62 3.859 5.019-18.379-8.114 14.52 3.095zm-39.676-85.973-6.702 0.405-5.821-14.897 18.573-13.708-6.05 28.2zm4.768 40.57-0.427 0.272 0.226-0.534 0.201 0.262zm-6.934 101.79 1.55 34.836-10.736-25.459 2.509-19.625 6.677 10.248zm-4.521-27.119 2.458-19.227 1.099 24.686-3.557-5.459zm19.807 122.87 96.233 228.22c-27.373 8.988-55.865 15.481-85.223 19.164l-11.01-247.38zm-1.41-31.688-2.043-45.903 177.25 272.08c-21.394 11.775-43.828 21.879-67.121 30.159l-108.09-256.33zm-3.007-67.563-2.325-52.233 51.169 22.591 207.16 269.44c-21.147 18.149-43.96 34.405-68.179 48.505l-187.82-288.3zm35.559-64.991 2.7 2.395-1.026-0.219-1.674-2.176zm12.03 15.647 7.378 1.573 19.726 17.502-18.83-8.313-8.274-10.762zm22.286 28.986 31.825 14.05 211.4 187.56c-14.938 18.311-31.258 35.449-48.805 51.253l-194.42-252.86zm64.865 28.637 226.98 100.21c-12.147 22.575-26.135 44.016-41.759 64.13l-185.23-164.34zm-27.007-23.962-30.917-27.431c2.761 0.589 318.77 67.979 319.65 68.097-7.772 25.605-17.722 50.269-29.649 73.772-0.75-0.419-256.92-113.48-259.08-114.44zm-47.625-42.255-37.328-33.119 45.557-18.516c365.1 47.241 344.42 44.721 345.77 44.508-2.54 27.301-7.479 53.913-14.617 79.624-0.923-0.425 15.113 3.075-339.39-72.497zm-5.493-64.515 15.994-10.166 29.588-1.789-33.319 13.542-12.263-1.587zm34.448 4.457 45.492-18.489c294.06-17.777 277.57-16.497 279.26-17.448 2.669 26.585 2.971 52.294 1.167 78.214-0.823-0.271 14.017 1.707-325.92-42.277zm77.385-31.452c241.57-98.183 228.02-92.409 229.27-93.718 7.906 25.517 13.625 51.983 16.964 79.177-1.478-0.438 12.921-1.126-246.23 14.541zm-34.357 2.077-42.297 2.557c288.52-183.4 273.07-173.07 274.12-175.21 11.342 21.604 21.015 44.213 28.833 67.666-2.376-0.445 15.393-7.205-260.66 104.99zm-189.14-97.676-15.453-39.55c-17.575-295.46-15.034-276.62-19.68-278.52 28.011-3.071 56.496-3.674 86.058-1.378-4.972 1.515-0.794-16.066-50.925 319.45zm-119.96-300.51c0.067 0.025 0.129 0.047 0.195 0.071-0.093-6e-3 -0.191-0.019-0.296-0.041 0.034-0.01 0.068-0.02 0.101-0.03zm-5.293 1.695c-3.461 3.771-7.488-10.648 98.911 261.66l2.996 50.366c-27.791-42.65-58.677-136.4-131.3-301.42 9.64-3.861 19.445-7.392 29.393-10.603zm-21.221-90.435c1.867 5.847 1.641 5.007 1.751 5.727-0.178 0.543-0.284 0.669-0.641 1.289l-0.015 0.086c-1.593-3.115-1.071-4.197-1.095-7.102zm3.512 16.098-1.33 0.425-1.394-4.259 0.049-0.022 0.563-0.946 0.25-1.034c1.254 3.939 0.83 2.609 1.862 5.836zm-5.522-22.394-0.079-0.14-7e-3 -0.13 0.086 0.27zm7.442 68.604 1.071 1.679c-16.771 5.901-20.733 6.022-22.469 11.886-0.012 2.875-0.324 2.44 4.409 9.856l1.201 1.172 2.4 1.127c-1.692 0.657-3.379 1.321-5.062 1.997l-7.896-17.943c8.665-3.495 17.443-6.769 26.346-9.774zm-39.321-141.08c-1.257 0.468-2.093 0.749-3.269 1.466l-0.253 0.331c6e-3 0.076 0.833 10.6 0.837 10.677l5.482 4.535c-0.089 0.078-4.745 4.127-4.833 4.205l0.092 0.288c-0.651 0.43-0.758 0.738-1.518 1.804-0.036 0.03-0.271 0.224-0.308 0.252-0.208 0.525-0.171 0.43-0.25 0.63l0.132-0.042 0.559 1.682-0.119 0.281 0.192-0.061c0.016 0.049 0.01 0.03 0.031 0.096l2.157 0.715 0.763-0.245 0.297 0.928-0.08 0.188 0.127-0.041 0.024 0.078c1.669 0.261 3.125-0.19 4.863-0.628l1.034 3.239c-2.817 1.648-2.151 1.179-3.138 2.023l-0.516 0.976-0.098 0.877 0.087 0.446-0.022-5e-3c2.106 6.993 12.898 41.582 13.218 42.585l-1.703 0.543c0.055 0.173 6.263 19.607 6.319 19.78l1.697-0.544 0.824 2.58c-0.059 1.482-0.1 3.153-0.365 4.92-7.081-22.186-7.526-23.633-9.16-28.709l-0.524-0.708-0.894-0.118c-6.712 1.913-4.618 1.254-9.412 2.957-0.044 0.04-0.632 0.574-0.673 0.615-6e-3 0.037-0.138 0.855-0.143 0.892 0.154 0.6 0.087 0.37 0.335 1.145l-2.143 0.681 0.179 0.562-0.032-5e-3 -0.013-0.041-0.08 0.026-0.164-0.027 0.023 0.072-6.33 2.021-0.018-0.057-0.116 0.1-0.086 0.027 0.012 0.037-0.096 0.083c-0.577 0.184-5.29 1.691-5.868 1.869 0.087 0.237 3.215 10.048 3.291 10.289l-1.281 0.409c-0.075-0.164-4.255-9.252-4.332-9.419l-1.12 0.514-0.667-2.099c0.046-0.015 2.611-0.841 2.657-0.855 7.803-9.475 2.295-19.5-6.432-20.045l-0.148 0.048c-0.055-0.172-4.587-14.25-4.643-14.42l-1.269 0.386-20.054-62.838 40.823-7.745c3.547 11.623 5.92 19.175 6.115 19.794zm-8.067-259.34c7.899 2.895 11.763 6.149 13.559 8.506l1.207 0.289c0.179-0.037 11.9-2.464 12.075-2.498l-2.788-13.42c0.744-0.119 1.475-0.269 2.196-0.452 0.038 0.185 2.749 13.234 2.787 13.417 8.63-1.79 7.191-1.438 8.518-1.947 1.065-0.975 0.752-0.617 1.37-1.57l7.687-1.576 0.03 0.147 0.128-0.18 0.069-0.013-0.012-0.065 0.53-0.752-1.46-7.032 38.368 3.355c1.732 0.911 2.731 1.482 2.807 1.526l0.708-1.218c13.354 1.168 24.12-0.751 39.231 19.71 12.94 17.518 18.855 41.375 13.084 65.228-7.029 28.84-30.48 55.502-51.703 76.373-10.174 9.987-10.112 13.525-44.732 28.049-13.204 4.504-33.059 8.582-51.029 11.723-8.57-29.505-17.832-63.242-22.237-85.412l9.208-2.105-1.063-4.785-9.024 2.256c-7.314-40.588-7.293-71.838-0.053-93.549 4.13-3.939 8.35-7.621 12.577-11.05 14.472-2.998 10.53-2.381 17.962-2.955zm-33.453 108.3-5.023 1.256-35.716-12.736-0.879-0.044c3.773-32.366 20.468-58.407 40.107-78.401-7.163 27.098-3.542 62.244 1.511 89.925zm6.713-103.52 2.469-0.511c-1.263 1.08-2.522 2.185-3.777 3.31 0.422-0.952 0.852-1.892 1.308-2.799zm-780.45 720.32c-2.907 0.937-1.679 0.508-2.679 1.049-0.29 0.39-0.188 0.231-0.527 0.828-0.054-0.016-0.223-0.065-0.271-0.083l-1.621 0.471-0.181-0.033 0.064 0.13c-0.127 0.141-0.167 0.234-0.275 0.427l-0.132 0.515c-0.038-6e-3 -0.064-0.01-0.097-0.015-1.58 0.411-5.836 2.205-6.72 3.59-0.075 0.352-0.032 0.223-0.191 0.566-0.425 2.615 1.088 8.026 3.487 10.264 0.23 0.109 0.699 0.342 0.946 0.408 1.091-0.045 4.087-0.397 5.173-0.744 2.878 9.419 3.265 16.57 12.173 17.813 1.325 5.205 0.372 1.53 1.654 6.101l-0.149 0.155c-0.33 0.141-2.818 0.855-3.164 0.956l0.114 0.371-0.838 0.255 0.635 2.073-0.531 0.162-0.045-0.149-0.111 0.197-0.067 0.021 0.02 0.064c-0.037 0.066-0.469 0.831-0.508 0.895 0.02 0.065 1.305 4.222 1.326 4.287 0.362 0.212 0.833 0.488 1.18 0.691l-0.054-0.18 0.57-0.179c0.056 0.182 0.094 0.304 0.141 0.46l0.851-0.259 0.36 1.17c-5.965 2.216-9.005 5.713-8.085 11.409-0.103 0.347-0.069 0.25-0.346 1.073 0.026 0.473 0.634 2.357 0.77 2.811l-0.172 0.057c-0.06-0.198-0.664-2.173-0.716-2.346-0.172 0.053-2.938 0.902-3.109 0.953l0.228 0.745c-0.178 0.056-0.777 0.246-0.941 0.294l0.633 2.063-0.529 0.16-0.045-0.147-0.11 0.194-0.069 0.021 0.02 0.065-0.509 0.894c0.021 0.07 1.293 4.217 1.314 4.287l0.952 0.559 0.021 0.07 0.065-0.02 0.211 0.124-0.052-0.172 0.534-0.162c0.056 0.184 0.175 0.571 0.226 0.739l0.921-0.281 0.801 2.664c-13.068 9.616-15.323 1.932-20.88 4.437-17.916-153.12-103.72-285.78-226.44-366.99 4.888-7.685-8.141 13.14 107.52-172.1 28.217 92.288-0.349-2.516 137.26 456.33zm4.868 25.668 0.648-0.201 0.844 0.09c0.956 2.707 0.962 2.845 1.848 5.996-0.794-0.144-0.509-0.054-1.287-0.412l-0.328-0.417c-0.446-1.204-0.27-0.646-0.757-2.407l-0.07-0.063-0.207-0.325-0.691-2.261zm12.066 170.98-0.024 0.034c17.692 12.467 15.616 10.955 16.616 11.818l-31.227-4.833 0.766-2.095 4.596-4.669 5.174-1.099 4.099 0.844zm-3.09-144.51 1.684-0.355 0.418 1.394-1.633 0.498-0.469-1.537zm159.33 68.829c1.348 5.515-7.191 4.008-10.682 5.661-5.485 0.776-10.833 3.599-16.525 4.527 0.091-1.801 0.071-0.595 0.071-6.037-0.117-0.044-4.443-1.677-4.561-1.719-3.676 4.167-2.651 2.961-4.634 5.428l-1.353 0.674-5.659-1.728c-0.727-0.584-1.403-1.229-2.078-1.874-0.23-2.075-0.154-1.796-0.982-6.763-0.123-0.025-4.651-0.947-4.773-0.974l-0.425 0.673c-3.275-4.259-6.209-8.416-9.947-11.86-4.705-2.856-2.268-8.239 4.076-6.209 22.785 2.79 42.123 9.589 57.472 20.201zm-53.975-40.207c3.1 1.49 2.984 2.54 7.879 1.523-1.842 1.686-6.162 2.162-7.879-1.523zm18.881 3.301c1.531 0.893 1.482 1.042 2.482 1.727 0.527 0.678 1.185 1.239 1.948 1.642-2.277-1e-3 -3.573-1.249-4.43-3.369zm49.994 102.95c5.738 8.664 9.609 19.813 12.293 29.224-4.385-0.114 1.083 0.348-36.72-3.397l24.427-25.827zm-14.374-89.178c3.62 1.98 3.209 2.963 5.159 4.261-2.513-0.34-4.45-2.142-5.159-4.261zm-33.701 176.93c1.057-0.217 31.169-7.352 60.368-8.109-8.477 29.721-22.246 47.214-46.619 63.626l-6.459 1.085-4.831-2.16c-0.08-0.087-2.95-3.228-3.028-3.316l-0.158 0.051c-7.701-22.604-5.412-14.748-10.039-34.445l2.459-11.652 8.307-5.08zm-2.199-113.39 1.513-4.409c0.049 0.016 0.035 0.011 0.116 0.038l3.028-3.313 4.523-2.022-9.18 9.706zm-21.323-12.002c-0.045-0.014-0.03-0.01-0.164-0.052-6.951 22.48-4.615 15.93-10.334 29.558-0.012-0.038-3.083-10.127-3.106-10.159l-9.513-31.116c6.777-0.421 3.631-0.399 14.133-0.01l5.86 2.923 2.65 4.573 0.474 4.283zm-3.278-23.331-0.863-0.107-1.777-0.909-1.621-1.886c-0.852-3.066-0.399-1.601-2.067-6.609 2.538 2.905 4.671 6.113 6.328 9.511zm-13.208-46.443c2.044 0.585 4.578 2.426 7.985 0.417-2.33 3.006-6.322 1.9-7.985-0.417zm6.69 36.712-4.757-0.183c-2.163 5.107-1.58 3.65-2.672 6.623l-1.771 1.752-1.852 0.76-1.99 0.077-1.895-0.605-1.908-1.609c-3.509-7.549-0.931-0.099-6.983-19.896 8.329 1.206 16.215 4.489 23.828 13.081zm-23.898-34.503c1.859 0.142 3.204 0.263 4.883-0.572-1.453 1.15-3.253 1.307-4.883 0.572zm0.145 194.68c5.485 1.178 3.506 0.537 8.673 2.81l4.836 4.588c16.166 33.058 13.404 29.701 19.889 49.696l0.163-0.053-0.483 4.281-2.65 4.585-5.86 2.914c-30.663 1.129-51.7-5.706-75.841-24.639l-3.02-5.807 0.556-5.27 2.145-3.78s-5e-3 4e-3 0.081-0.075c-0.03-0.041-0.039-0.06-0.069-0.111 18.481-13.841 17.038-13.465 44.974-28.267l6.606-0.872zm-73.211-130.47c-1.149 6.531 0.552 13.938-1.51 20.229l-0.793 0.084c-4.617-1.595-2.773-0.874-6.826-2.121-0.074 0.099-2.853 3.803-2.929 3.9 2.969 4.686 2.101 3.379 3.933 5.965l0.295 1.67c-0.393 0.566-0.786 1.133-1.183 1.694-2.519 1.651-5.291 2.893-8.116 3.99-0.123-0.015-2.989-0.365-3.112-0.379l-0.992 1.891c-3.275 1.143-4.259 1.501-5.052 1.79 0.727-8.868 1.231-17.798 1.498-26.787 6.773-9.447 14.34-17.455 22.698-23.831 5.664 0.411 1.598 8.079 2.089 11.905zm-16.875 46.869 0.031 0.089-0.106 1.999-0.784 1.832-1.354 1.46-2.279 1.028c-3.083-0.026-1.742-0.05-6.344 0.125 0.126-1.136 0.271-2.266 0.39-3.404 3.364-1.492 6.884-2.534 10.446-3.129zm-10.302 55.109 0.834 1.82 0.159 1.981-0.529 1.925-1.527 1.972c-1.093 0.559-2.57 1.263-6.257 3.459 0.021 0.127 0.763 4.683 0.784 4.809 5.442 1.108 3.89 0.827 7.03 1.296l2.068 1.391 1.111 1.651 0.477 1.94-0.212 1.987-1.187 2.184c-2.567 1.891-1.321 0.919-5.625 4.418 0.04 0.121 1.504 4.506 1.543 4.627 5.565 0.211 3.988 0.181 7.141 0.155l2.279 1.028 1.354 1.46 0.784 1.832 0.106 1.999-0.065 0.185c-9.922-1.724-19.042-6.886-25.285-14.228 2.759-10.209 5.238-20.53 7.368-30.979 4.434 0.808 2.664 0.375 5.823 1.392l1.826 1.696zm-1.59 49.293c2.358 1.252 5.042 2.116 7.673 2.942 0.061 0.116 0.796 1.515 0.854 1.626l3.004-0.367c3.568 1.22 6.96 2.759 9.438 5.495l-0.327 1.847c-1.835 2.593-0.962 1.279-3.933 5.965 0.076 0.101 2.855 3.798 2.929 3.9 5.34-1.559 3.833-1.088 6.826-2.112l0.845 0.086c2.076 9.068 0.562 18.376 2.404 27.357 1.442 5.02-3.289 6.657-7.773 1.052-16.482-15.612-27.89-32.261-33.908-49.484 2.152-5.268 8.182 0.989 11.968 1.693zm26.715-11.286-4.596-4.681c-3.899-10.664-7.098-21.173-7.616-33.138l57.275 8.87c-18.028 17.469-20.98 18.677-35.897 29.225l-3.992 0.814-5.174-1.09zm23.662-108.69c0.028-0.039 0.02-0.028 0.071-0.095l-2.209-3.903-0.556-5.271 3.02-5.807c8.461-6.622 5.158-4.291 14.495-10.232l13.678 44.737c-16.078-9.752-9.578-5.321-28.499-19.429zm10.73-37.025-1.725 0.995-1.968 0.349-2.428-0.539c-1.607-1.229-1.746-1.397-5.802-4.162-0.103 0.071-3.909 2.699-4.013 2.768 1.335 5.394 0.927 3.871 1.829 6.903l-0.349 2.461-1.026 1.722-1.546 1.26-1.883 0.658-2.491-0.149-0.744-0.399c-1.028-13.866 4.59-27.874 15.38-35.66l7.139 23.35-0.373 0.443zm-91.078 29.639c5.061 3.349 1.881 11.827-5.308 10.389-1.492-0.079-2.611 0.102-3.423 0.491 0.887-10.974 1.381-22.056 1.498-33.228 0.072 4e-3 2.676 0.156 2.748 0.161l0.29-0.252c-0.04 0.156-0.025 0.097-0.065 0.258 4.23 0.476 5.336 2.339 9.86 1.969l1.977-0.872c0.052 0.677 0.141 1.062 0.286 1.641 3.869 3.258 5.475 10.799-0.727 12.221-5.529-1.96-14.004 1.651-7.136 7.222zm-405.81 205.71c10.987-3.008 12.765 4.595 18.621 2.764 4.637-1.608 10.015-1.021 14.103 1.514 3.862 4.713 7.966 1.335 12.631 1.159 111.91 171.78 104.85 161.01 105.53 161.86-21.539 12.009-44.135 22.334-67.622 30.788-0.153-1.294 4.624 10.35-83.267-198.08zm-22.998-2.277c3.205-1.091 6.749-1.171 9.976-0.259 91.512 217.02 85.557 203.06 86.208 204.12-27.707 9.243-56.574 15.926-86.333 19.723 0.117-0.856 0.65 12.37-9.851-223.58zm-79.777 226.18c-27.89-1.894-55.105-6.279-81.417-12.964 1.035-1.489-2.086 12.342 50.138-238.59l6.944 3.992 5.824 0.47c4.555 4.018 3.577 7.376 8.081 8.8 4.031 1.293 9.647-3.334 17.738 2.045 5.318 6.917 11.809-2.842 21.975 4.339-31.136 243.6-29.629 230.39-29.283 231.9zm-91.373-15.623c-25.157-7.003-49.445-16.107-72.671-27.106 1.447-1.354-4.96 13.493 107.69-260.34l32.05-36.036-7.784 37.399-2.146 0.698c-9.7-2.154-7.737-3.298-12.82-4.427l-1.502 1.123c-1.794 2.604-1.061 1.062-4.768 9.507 0.131 0.038 2.292 0.67 2.422 0.712l0.827-1.281 1.82 1.245 1.517 2.75c-1.27 7.076 0.612 12.995 0.88 14.094-5.021 3.59-3.083 10.974 2.249 12.196 0.773 0.148 1.528 0.375 2.271 0.635l1.068 2.067c-54.064 259.77-51.212 245.42-51.1 246.77zm-81.858-31.587c-25.25-12.657-49.177-27.573-71.509-44.495 1.28-0.75-8.379 9.865 166.23-186.45-99.95 242.97-94.589 229.57-94.717 230.95zm99.526-493.61-48.458-20.757c-216.23-192.51-202.11-180.48-204.4-180.89 16.971-21.231 35.783-40.925 56.201-58.836 0.447 1.514-10.733-13.573 196.66 260.49zm68.796-20.969 1.687 28.365-1.559-0.407-1.216-1.478-1.569 0.426 0.389 2.097-1.205 2.804 0.498 0.78c-0.61 0.561-0.337 0.332-1.37 1.452-0.63 0.372-1.297 0.777-2.025 1.23l-0.876-1.278-2.804-0.393-1.43-1.21-1.485 0.611 0.684 1.969-0.803 3.012 0.762 0.887c-3.533 0.959-4.354 0.349-6.616 0.643l-1.079-0.785-1.396 0.796 0.285 0.626c-0.878 0.443-0.644 0.349-1.158 0.746l-26.075-11.17c-219.75-290.4-207.54-274.84-209.49-275.76 21.043-17.667 43.683-33.489 67.684-47.195 0.123 2.286-10.649-14.959 190.17 293.23zm-4.317-72.576 2.996 50.376c-189.21-290.37-178.84-274.88-180.23-275.84 24.384-13.235 50.109-24.293 76.895-32.973-0.185 1.997-5.883-13.408 100.34 258.44zm-2.123-35.695c-92.848-237.62-87.598-224.63-88.543-225.76 24.055-7.206 48.925-12.5 74.45-15.67-0.328 1.345-1.019-12.629 14.093 241.43zm86.26-242.86c26.88 2.549 53.089 7.429 78.425 14.439-0.951 1.369 3.477-18.233-74.565 345.46l-16.269 18.762-1.248-2.142 0.177-1.928-1.368-0.858-1.195 1.782-2.845 1.084-0.322 1.29c-2.021-0.632-3.885-1.144-5.676-1.564l0.264-1.296-1.762-2.249-0.168-1.865-1.454-0.67-0.982 1.937-2.589 1.558-0.147 1.356c-0.875-0.126-1.931-0.264-3.018-0.386l-14.998-38.383c52.818-353.51 50.257-334.53 49.74-336.33zm209.27 74.224c8.941 5.942 17.66 12.19 26.147 18.728-0.641 0.579 6.795-7.94-142.57 164.31l116.42-183.04zm-88.839 99.125c55.408-127.72 52.175-120.16 52.4-120.99 5.453 2.936 10.833 5.99 16.151 9.137l-68.551 111.85zm123.49-73.689c20.753 16.778 40.025 35.315 57.567 55.406-0.739 0.438-252.52 186.3-254.61 187.84l13.723-31.632c193.57-223.24 182.86-210.78 183.32-211.62zm64.579 63.633c18.05 21.676 34.125 45.044 47.981 69.817-1.062 0.36 13.648-8.879-252.69 160.42-4.984-0.839-6.01-3.342-9.89-2.324-1.364 0.312-7.803 4.243-15.438 0.698-2.245-1.246-4.601-1.792-6.963-0.791-12.376 5.424-15.127-2.678-20.985-0.746-11.263 4.169-15.199-4.696-21.169-2.94-0.875 0.271-1.035 0.36-2.035 0.594l10.833-24.971c282.06-208.17 269.63-198.88 270.36-199.75zm-105.8 243.32c0.754 0 1.611-0.177 2.312-0.426 15.066-5.286 14.326 2.313 20.895 0.567 1.138-0.287 7.541-3.667 14.982 0.014l-75.181 4.546 13.319-5.413c2.441 0.869 4.713 0.372 6.318-0.822 1-0.682 7.566-2.691 13.805 0.566 1.796 1.083 4.136 0.968 3.55 0.968zm26.009-11.771c-7.751-4.748-10.254 4.341-21.317-0.469 1.649-0.67 185.3-75.286 186.06-75.67 7.901 25.099 13.695 51.122 17.173 77.863-0.863-0.042 0.63-0.099-6.477 0.331-2.435-1.057-3.913-1.008-5.487-0.656-6.005-2.77-9.757 5.006-20.01 0.251-2.231-1.245-4.579-1.794-6.945-0.801-12.958 5.588-15.323-3.244-21.687-0.302-12.371 5.928-15.331-2.54-21.458 0.288-12.437 5.905-15.412-2.511-21.495 0.311-12.146 5.897-15.317-2.542-21.422 0.274-10.581 5.012-14.762-0.339-18.661-0.337-2.669-0.012-8.819 4.356-16.834 0.218-7.516-4.597-10.937 4.129-21.443-1.301zm-46.274-2.213c-1.855-0.354-3.632 0.058-5.188 1.211-7.803 3.098-13.601-0.669-15.041-1.165-5.765-2.093-8.899 5.422-20.384 0.05-5.658-3.203-8.06 3.34-17.742 0.956 1.967-1.25 236.89-150.54 237.56-151.07 11.112 21.02 20.657 42.989 28.432 65.775-0.979 0.167 11.079-4.651-207.64 84.243zm-93.387 23.32 20.709-13.163c3.898 0.941 5.921 3.473 9.917 1.754 8.573-4.418 15.695 0.401 16.915 0.727 5.095 1.473 8.162-4.466 17.635-1.171l-22.874 9.297-42.302 2.556zm10.409 10.405-33.318 13.541-12.267-1.587 15.992-10.165 29.593-1.789zm-67.977-25.539c2.724-0.098 9.349-3.555 16.801 1.51 1.944 1.515 4.657 2.03 7.082 0.986 10.578-5.436 15.731 2.861 21.484 0.402 3.872-1.989 8.474-2.319 12.567-1.049l-23.057 14.656-34.73 2.1 0.492-2.04 1.409-1.284-0.425-1.567-2.108 0.462-2.869-1.07-1.137 0.745c-0.76-1.296-1.539-2.55-2.321-3.733l1.095-0.873 0.258-2.801 1.208-1.496-0.621-1.403-2.032 0.679c-0.231-0.052-2.727-0.615-2.956-0.67l-1.022 0.921c-0.161-0.203-0.35-0.417-0.517-0.622l3.094-7.132c4.433 1.516 4.523 3.41 8.305 3.279zm6.047 34.832-0.593-0.452-1.309 0.444c-0.309-1.168-0.689-2.392-1.074-3.62l1.388-0.509 0.551-1.348 10.684-0.646-9.647 6.131zm7.887 12.672-3.665 1.49-0.403-0.092-2.133-2.09 0.144-0.092 6.057 0.784zm9.708 73.86-8.274-10.761 7.378 1.573 19.726 17.502-18.83-8.314zm45.841 32.279 160.53 142.43c-5.738-2.696-9.385 4.826-19.696 0.031-2.038-1.942-4.688-2.36-7.071-1.471-11.885 5.398-15.86-4.984-22.509-0.892-4.272 1.781-9.223 1.689-13.369-0.24-4.068-3.876-7.863-0.726-11.534-0.199l-118.18-153.71 31.826 14.051zm-52.863-23.339 123.04 160.03c-1.653 0.387-7.676 3.997-15.325 0.44-6.462-6.157-7.889 4.535-23.146-2.626-5.797-2.958-9.575 4.711-19.888-0.077-5.749-5.485-9.649 2.957-20.106-1.185-3.669-5.037-8.551-1.902-11.743-1.571l-75.919-116.53 3.021-8.307 0.018-2.877c1.025-1.978 1.099-4.125 0.04-6.213 0.071-11.077-3.446-21.143-4.503-24.667l-2.198-2.822c0.518-0.346 1.028-0.681 1.571-1.06l0.681 0.891 2.805 0.191 1.497 1.207 1.475-0.697-0.754-1.969 0.6-3.015-0.733-0.819c0.889-0.742 1.747-1.505 2.723-2.392l0.797 0.831 2.881-0.143 1.646 1.01 1.311-0.897-0.051-0.093 30.263 13.36zm16.852 150.66c-1.375 0.174-8.339 3.123-15.543-1.615-5.772-5.568-10.448 3.606-21.285-2.007-1.517-1.579-3.466-2.33-5.71-2.049l-20.15-47.786-2.043-45.901 64.731 99.358zm-38.932-174.8 4.208 0.897 3.857 5.017-10.727-4.736 0.256-0.05 1.788 0.73 1.208-1.07-0.59-0.788zm10.471-9.03-1.672-2.175 2.698 2.394-1.026-0.219zm-20.593-111.3c-1.731-0.891-2.344-1.626-3.987-2.111l2.547-4.005 6.021-4.444-4.581 10.56zm-144.62 146.02c-0.07-0.036-5.016-2.552-5.086-2.589-0.061 0.023-3.989 1.49-4.049 1.514-1.931 3.2-1.487 2.452-2.277 3.821-2.001-2.281-11.168-12.986-17.625-24.547l16.557-10.714 27.877-1.663c0.617 1.029 1.236 2.061 1.859 3.009l-1.156 0.876-0.258 2.804-1.204 1.493 0.611 1.484 2.042-0.757c0.232 0.052 2.722 0.615 2.951 0.67l1.089-0.989c1.238 1.567 2.626 3.173 4.336 5.011l-0.98 1.061 0.097 1.327-8.009 19.47c-7.243 7.974-6.25 6.795-6.879 7.832l-2.4-1.365-0.565 1.07-6.69-3.852 0.649-1.078c-0.018-0.087-0.871-3.804-0.89-3.888zm-28.366-54.72 25.184 3.068-12.85 8.315-19.523 1.165c0.162-2.933 0.885-6.386 7.189-12.548zm-10.193 12.727-28.969 1.728 35.235-14.761c-5.117 5.669-6.148 8.886-6.266 13.033zm27.104-21.763 12.289-5.148 1.722 1.685 1.692-0.325c0.134 1.266 0.277 2.401 0.434 3.453l-1.71 0.325-0.937 1.654-13.49-1.644zm21.261-52.207c0.027 0.088 0.046 0.177 0.077 0.263 0.097 1.296 0.034 2.602-0.169 3.886l-6.096-5.428 6.188 1.279zm-22.633-15.919-29.588-26.343 35.938 15.394 10.996 14.53-17.346-3.581zm19.304 87.099 0.181 0.093-0.358 0.021 0.177-0.114zm7.481-89.294 7.588 3.251c-0.744 1.144-1.628 2.186-2.614 3.115l-0.134 0.03-4.84-6.396zm5.282 158.32 7.234 3.758-16.336 18.367 9.102-22.125zm1.164-2.83c0.756-1.838 0.426-1.187 1.446-2.856l-0.215-0.139 0.831-2.019 2.833-2.226 8.882 4.524-0.173 0.833-5.444 6.121-8.16-4.238zm12.749-97.61 0.42 0.374c2e-3 0.082 1e-3 0.165 3e-3 0.248-0.134 1e-3 -0.268 3e-3 -0.402 4e-3 -0.012-0.213-0.014-0.418-0.021-0.626zm8.681 112.18 14.679 7.626 0.373-0.717c-1.389 3.817-0.988 2.523-1.231 4.224l0.822 1.353c4.13 3.659 5.535 3.769 9.296 4.016 0.866-0.797 0.194-0.032 3.535-4.374 0.076 0.012 1.953 0.301 2.029 0.31l2.716-2.083c0.033-0.046 3.795-5.198 3.827-5.244 2e-3 -0.042 0.147-3.25 0.149-3.292-3.324-7.438-2.434-4.945-3.903-10.931l8.15 3.163-0.14 0.189c-0.043 0.024-2.229 1.255-2.27 1.278-0.073 0.12-1.868 3.065-1.94 3.185l2.5 2.538 1.433 0.551-1.461 3.942c-17.378 18.861-24.852 21.109-46.358 31.723l7.794-37.457zm7.398-16.999 4.154 1.957 2.272 3.972 1.135 7.416c2.481 4.052 2.095 3.287 2.398 4.193-0.03 0.03-0.855 0.856-0.888 0.884-0.311 1-0.16 0.578-0.708 1.96l0.276 0.814-0.214 0.588-15.179-7.886 1.713-8.232 5.041-5.666zm-0.067-106.53c0.159-0.623 0.321-1.227 0.484-1.803l2.623-1.099c-0.53 1.262-0.967 2.57-1.351 3.9-0.245 0.106-0.488 0.225-0.721 0.371l-1.035-1.369zm5.092 63.841 0.041-0.198c0.016 9e-3 0.029 0.018 0.044 0.027l-0.085 0.171zm5.467-161.38-2.124-35.703 10.057 25.739-2.691 18.009-5.242-8.045zm2.791 24.456-0.858 5.74c-0.043 0.013-0.092 0.027-0.135 0.041l-0.478-8.038 1.471 2.257zm-19.438 27.054-0.606-0.259c0.14-0.074 0.273-0.153 0.415-0.226l0.324 0.378c-0.046 0.035-0.088 0.072-0.133 0.107zm30.948-29.563 1.688-11.295 5.578 14.275-1.699-1.253-0.652-1.811-1.566-0.217-0.405 2.091-1.054 1.109-1.89-2.899zm-26.136 292.16 1.324-2.276 5.276-2.065 2.513 0.611c0.109 0.095 2.161 1.869 2.267 1.966l4.657-3.307-1.448-2.449 0.103-3.513 2.69-4.159 2.3-0.971c0.144-2e-3 3.46-0.054 3.604-0.054 0.027-0.121 1.156-5.272 1.184-5.393l-2.668-1.701-2.042-2.339 0.229-4.281 1.628-2.592c0.113-0.082 2.651-1.922 2.762-2.005-0.045-0.12-1.744-4.692-1.788-4.812l-3.687 0.08-2.462-1.082-1.026-1.117-0.035-0.148 7.401-10.255c1.171-0.047 2.339 0.043 3.491 0.252 3.255 2.152 7.461 1.344 9.567-1.913 2.074-3.76 5.641-6.573 9.682-7.827l-8.863 69.342c-4.348 1.101-9.068 0.385-12.836-1.951-5.365-6.479-11.95 3.028-22.033-4.957-0.682-0.513-0.919-0.679-1.803-1.014l0.013-0.07zm34.272-65.302 12.349-12.331 1.024-0.328-0.296 2.318c-6.228 0.742-4.451 6.653-13.077 10.341zm22.986-0.994 14.927 35.399 1.987 44.645c-2.79 0.069-5.574-0.554-8.039-1.833-5.305-5.502-8.877 1.875-18.679-1.501l9.804-76.71zm9.256-6.392c1.025-0.113 2.112-0.1 3.763-1.068l0.497 11.171-4.26-10.103zm-43.475-273.28-15.451-39.544c-17.304-290.91-16.094-274.37-16.854-275.9 27.174-2.754 53.674-3.021 79.879-1.127-0.611 1.267 2.284-17.128-47.574 316.58zm-171.2 21.962c-232.09-99.417-218.75-93.93-220.39-93.953 12.127-23.093 26.166-45.026 41.908-65.595 0.728 1.605-9.772-8.06 178.48 159.55zm25.937 23.093 39.944 35.563c-337.42-69.672-319.11-66.217-321.09-65.701 7.736-27.157 17.95-53.277 30.329-78.137 1.345 1.818-15.727-5.9 250.81 108.28zm56.388 50.203 22.405 19.947c-0.91 1.434-1.271 2.931-0.966 4.748l-1.016 0.767-1.934 0.098-0.675 1.454 1.864 0.983 1.491 2.726 1.747 0.158c-0.316 1.782-0.572 3.578-0.767 5.345l-1.762-0.098-1.981 1.966-1.871 0.375-0.49 1.546 2.019 0.697 0.251 0.326-33.911 14.207c-355.79-43.337-336.15-41.38-338.35-40.345 1.924-29.52 6.64-58.288 13.918-86.035 1.75 1.748-18.157-2.824 340.03 71.135zm-36.117 63.844-46.706 19.567c-284.69 16.982-266.8 15.46-268.78 16.967-3.19-26.349-3.972-51.031-2.878-75.825 1.596 0.979-16.22-1.463 318.37 39.291zm-77.413 32.431c-230.09 96.393-217.22 90.737-218.44 92.045-8.342-25.26-14.536-51.484-18.377-78.458 2.007 0.816-14.475 1.403 236.82-13.587zm33.238-1.982 61.654-3.678c0.098 0.282 0.193 0.564 0.296 0.846-291.71 188.77-275.88 178.28-276.82 179.61-13.301-23.339-24.595-47.958-33.679-73.615 2.63 0.433-12.505 6.2 248.55-103.17zm66.653 7.245c7.221 13.011 17.532 24.54 18.303 25.393l0.893-0.806c-0.029 0.05-1.6 2.769-1.627 2.82l0.213 2.413-0.033-0.018c0.018 0.083 0.504 2.285 0.52 2.369 0.064 0.035 4.246 2.302 4.308 2.339 0.071-0.019 4.357-1.193 4.426-1.216l0.466-0.781 6.322 4.115-0.985 1.612 0.715 0.435c-275.13 216.19-260.61 204.42-261.47 206.12-18.09-20.666-34.35-42.967-48.537-66.65 2.154-0.212-13.686 9.633 276.49-178.14zm36.45 50.379-16.889 41.055c-197.32 221.86-186.43 209.19-186.96 211.05-19.218-15.241-37.189-31.985-53.732-50.061 1.335-0.503-13.842 11.234 257.58-202.04zm89.281 118.54c3.452-0.402 7.018 0.245 9.987 1.904 5.192 5.785 8.644-1.437 18.324 1.065 10.625 238.74 9.895 225.8 10.411 227.15-23.995 2.495-46.37 2.981-68.523 1.986 0.326-0.926-1.482 12.64 29.801-232.1zm38.25-21.415 7.185 17.039c-3.684-0.91-5.347-2.508-6.558-2.946l-0.627-14.093zm85.485 38.749c4.469-2.008 9.87-1.887 14.158 0.275 6.015 6.133 10.83-3.904 21.914 1.48 7.5 4.366 10.582-4.089 21.124 1.225 6.018 6.142 10.807-3.904 21.915 1.48 5.421 3.154 6.572 0.255 11.891-0.336 79.951 103.99 75.485 98.298 76.247 98.961-21.145 18.364-43.999 34.803-68.263 49.094-0.344-0.905 5.248 7.813-98.986-152.18zm107.4 7.385c13.348-4.95 14.629 2.105 20.105 1.157 1.485-0.177 7.941-4.124 15.677-0.229 6.045 6.166 11.608-4.185 22.262 1.663 6.126 4.422 10.033-4.2 20.646 1.151 0.8 0.817 1.79 1.418 2.876 1.757 36.579 32.455 34.436 30.636 35.198 31.082-14.914 18.525-31.216 35.887-48.785 51.887-0.485-0.709 5.164 6.667-67.979-88.468zm96.361 3.904c4.904 0.831 7.886 4.672 12.457 1.556 4.178-1.435 8.94-1.162 12.806 0.786 5.296 5.415 8.159-1.352 17.513 0.14-5.005 7.375-10.238 14.582-15.653 21.642-0.595-0.619 2.848 2.467-27.123-24.124zm34.721-7.811c-2.064-1.966-4.726-2.343-7.069-1.467-11.838 5.376-16.279-5.099-22.713-0.799-1.492 0.916-7.342 2.462-13.155-0.241-1.499-1.427-3.339-2.103-5.484-1.839l-145.23-128.85c1.966 0.868 226.74 100.13 227.57 100.42-5.812 10.985-12.041 21.717-18.697 32.152-1 0.244-7.243 4.335-15.23 0.62zm-220.66-157.16-30.915-27.43c2.745 0.585 318.76 67.981 319.65 68.1-7.602 25.688-17.398 50.439-29.175 74.04-0.709-0.492 11.72 5.06-259.56-114.71zm-47.624-42.254-24.224-21.493 369.89 67.393c-1.849 8.955-3.986 17.805-6.351 26.562-0.829-0.368 14.506 2.969-339.32-72.462zm309.56-1.032-324.09-41.35 22.764-9.252c2.61 0.338 344.29 44.6 345.13 44.569-0.332 3.84-0.711 7.666-1.138 11.478-0.104-0.014-42.59-5.511-42.671-5.445zm-280.6-59.025 45.492-18.489 259.15-15.669c2.071 0.923 3.818 0.854 5.774-0.094 1.664 0.479 3.321 0.408 4.792-0.092 2.656-1.096 6.319-0.515 8.362-1.092 2.882 27.178 3.222 52.364 1.646 77.55-0.836-0.158-322.39-41.749-325.22-42.114zm127.4-378.68 10.537-16.568c117.45 77.848 199.52 204.94 216.56 351.59-10.792 3.963-14.814-2.206-19.982-1.85-17.386-138.92-95.633-259.16-207.12-333.18zm228.32 346.75c0.508 5.532 0.93 11.088 1.252 16.672-6.372 7.341-13.26 16.778-18.829 25.576-0.088-14.521-0.831-28.89-2.214-43.074 0.757-0.043 1.753-0.257 2.1-0.377 8.88-3.675 16.189 0.732 17.691 1.203zm-19.564 88.559c1.056 1.892 2.791 3.814 4.376 4.991 0.768 1.778 0.765 3.475-0.36 5.012l-4.974-0.635c0.35-3.114 0.669-6.236 0.958-9.368zm15.172-49.367-0.406-0.138c0.76-1 2.4-3.246 6.694-7.701 0.027 0.956 0.045 1.914 0.066 2.871-4.294 3.64-2.842 2.505-6.354 4.968zm-190.36-558.39c-0.043-0.03-0.037-0.026-0.057-0.046l0.057 0.046zm-29.99 70.051v-0.151l22.467-36.456c0.12-0.529 0.249-1.069 0.335-1.607l-0.697-1.427c-1.61-1.794-1.187-1.364-1.957-2.068l1.475-2.369c1.867 1.02 3.021 1.703 4.557 1.827l0.488-0.782c0.738 0.216 1.026 0.101 2.373-0.011 0.047 8e-3 0.329 0.06 0.375 0.067 0.075-0.025 0.358-0.128 0.436-0.136l0.203-0.08-0.112-0.07 0.912-1.512 0.292-0.099-0.169-0.105 0.048-0.08-0.833-2.069-0.578-0.628c0.063-0.102 0.15-0.241 0.21-0.336l-3.778-5.417c0.078-0.034 6.467-2.8 6.543-2.833 0.021-0.063 3.437-10.134 3.458-10.197l-0.101-0.265c-0.774-0.845-0.445-0.539-1.445-1.344 4.084-5.205 22.208-28.927 23.862-42.151 10.23-81.799 39.41-83.62 39.655-83.629l0.811 2e-3 17.638 57.687c-50.882 81.534-28.402 45.522-100.24 160.57l-0.475-0.294c0.106-0.169 5.511-8.831 5.617-8.999l-2.518-1.576c0.097-0.155 1.04-1.666 1.136-1.818l-3.645-2.268 0.065-0.103-0.198 0.02-0.064-0.04-0.031 0.049c-2.262 0.231-1.395 0.256-3.802-0.112-2.726-1.204-2.544-1.135-4.637-2.894-1.385-2.001-0.983-1.233-1.764-3.368l0.033-0.051-0.066-0.041-0.068-0.185-0.064 0.103-4.17-2.6 0.084-0.135-0.224 0.048-0.058-0.036-0.035 0.056-1.038 0.223-0.524 0.838-0.361-0.227c0.029-0.047 0.55-0.878 0.578-0.923zm-3.1 6.274 0.028 0.018-3.137 4.986 3.109-5.004zm3.059 1.274 0.137-0.022 0.605-0.368 0.405-0.627 0.118-0.775-0.259-0.717c-0.477-0.49-0.18-0.336-1.905-1.375l0.374-0.173 3.067 1.913-9.498 15.196-0.863-0.543 7.819-12.509zm-14.935 33.061c1.196-4.788 0.341-5.5 0.439-9.87l4.574-7.318 2.022 1.261-0.07 0.112 0.205-0.028 0.062 0.038 0.032-0.051 1.908-0.26 1.935 0.298c2.693 1.265 2.515 1.191 4.639 2.893l1.116 1.61 0.606 1.832-0.034 0.053 0.064 0.04 0.064 0.194 0.069-0.111 3.643 2.268 1.195-1.913 2.525 1.573c0.638-1.022 1.093-1.751 5.615-8.997l0.475 0.294c-17.492 28.014-14.177 22.673-18.525 29.769-5.35-3.179-10.748-6.287-16.221-9.274 1.445-0.696 2.872-3.028 3.662-4.413zm-18.089 42.988 1.491 0.119c2.446-0.472 1.636-0.291 3.551-0.796 3.043-2.469 5.416-5.173 6.805-7.328l0.544-1.774 7e-3 -1.901-0.74-2.208c-1.964-2.311-1.257-1.611-3.107-3.078 3.609 2.019 7.19 4.083 10.742 6.19l-10.26 16.741c-7.904-4.682-15.944-9.159-24.135-13.383 3.088 1.081 11.248 6.032 15.102 7.418zm-37.108-4.79c4.784 2.228 9.532 4.521 14.225 6.908-0.87 1.029 4.076-10.044-84.012 193l-59.359 96.855c72.422-337.5 68.499-318.71 68.444-319.92 15.808 4.766 31.271 10.338 46.313 16.719l0.268 0.831 1.232 1.73c6.245 4.464 9.55 4.391 12.889 3.872zm-192.7 905.2c-270.03 0-489.72-219.69-489.72-489.72 0-340.99 341.62-578.13 660.64-458.92-2.774 1.057-5.233 2.179-7.661 8.808-0.381 1.973-0.355 2.722 1.104 5.223 3.482 2.808 1.786 1.185 14.569 8.186l0.576 0.812c0.149 0.533 0.342 1.139 0.4 1.628-308.56-128.32-650 99.883-650 434.26 0 259.2 210.88 470.08 470.08 470.08 164.05 0 308.72-84.493 392.84-212.23 3.947-1.098 8.299-0.734 11.883 1.072 3.923 4.006 8.211 1.094 10.448 0.496-86.666 138.2-240.35 230.29-415.17 230.29zm420.75-239.4c-2.274-0.05-4.519-0.579-6.573-1.535-4.866-4.633-7.736 0.59-15.448-0.094 27.814-44.437 48.408-93.824 60.133-146.52 3.131 1.737 8.168 2.309 7.14 7.198-0.381 6.057-11.484 4.654-7.882 11.858 4.202 0.903 11.281 2.071 10.06 7.973-1.043 4.443-12.205 7.962-4.573 11.911l0.033 0.015c1-0.083 2.644-0.264 5.089 0.777-11.625 38.328-27.83 74.678-47.979 108.42zm143.3 9.699c-5.728-4.847-10.453 3.614-20.8-2.014-5.764-6.232-10.718 3.809-22.5-3.853-5.906-4.067-10.044 4.508-20.785-0.279-6.223-5.737-10.976 4.635-22.612-2.009-5.974-3.525-9.692 4.621-20.261-0.292-4.125-3.926-7.843-0.656-11.836-0.157 13.277-23.421 24.762-47.981 34.262-73.504 1.841 0.262 3.866 0.22 5.452-0.089 5.903 2.041 3.533 9.011-0.268 12.647-0.542 8.137 8.31 1.376 12.381 4.165 5.788 3.333-0.333 9.618-0.518 13.324 1.45 3.728 4.4 2.538 6.845 1.6 2.351-0.903 4.776-1.832 6.833 0.101 6.24 3.74-3.259 10.75 1.583 14.143 3.813 3.003 9.708-5.773 13.78-0.098 4.25 4.411-4.307 11.243 3.429 13.821 3.547-2.531 9.16-6.917 12.674-2.041 2.458 3.605-2.178 14.84 5.735 11.399 2.904-4.148 10.274-6.402 12.241-0.36-1.461 5.68 2.887 13.803 7.825 6.468 2.9-5.359 11.623-2.891 10.817 4.365 0.022 0.645 0.085 1.217 0.183 1.729-2.01 0.323-7.181 3.948-14.46 0.934zm20.191 0.792c1.823-1.217 3.626-3.176 4.676-4.889 3.593-1.951 6.506 0.085 8.096 3.839-4.049 1.769-7.823 2.816-12.772 1.05zm21.905 0.273c2.466-3.423 6.278-4.3 8.735-0.972-2.754 1.151-5.822 1.483-8.735 0.972zm-54.823-48.601c-3.711-6.885-5.689-15.642-5.118-24.319l0.72-0.385 2.491-0.149 1.883 0.658 1.546 1.269 1.026 1.713 0.349 2.461c-0.904 3.039-0.496 1.514-1.829 6.912 0.103 0.071 3.911 2.689 4.013 2.759 4.561-3.158 3.278-2.231 5.802-4.162l2.428-0.539 1.968 0.349 1.725 0.995 1.292 1.534 0.742 2.375c-0.217 1.684-0.359 2.417-0.706 7.109 0.112 0.053 4.303 2.036 4.414 2.091 3.996-3.864 2.88-2.741 5.05-5.047l2.321-0.924 2.001 0.033 1.864 0.709 1.514 1.302 1.114 2.229c0.137 4.048 0.011 1.243 0.447 7.13 0.121 0.035 4.565 1.316 4.685 1.353 3.331-4.445 2.41-3.163 4.188-5.789l2.132-1.284 1.978-0.295 1.959 0.402 1.692 1.046 1.464 2.017c0.468 2.408 0.348 2.026 1.582 6.963 0.125 0.015 4.715 0.582 4.84 0.596 2.578-4.934 1.873-3.52 3.207-6.391l1.908-1.609 1.895-0.605 1.99 0.074 1.852 0.763 1.771 1.761c1.291 3.503 0.422 1.257 2.672 6.614l4.874-0.188c1.755-5.27 1.29-3.769 2.139-6.826l1.621-1.886 1.777-0.912 0.963-0.112c-18.279 37.911-71.797 24.062-88.246-1.795zm74.966 48.152c1.548-2.187 5.428-3.019 7.506-0.854-2.396 0.888-4.991 1.187-7.506 0.854zm19.818-2.101c1.477-2.039 4.427-1.834 5.733-1.342-1.811 0.805-3.763 1.258-5.733 1.342zm19.035-3.719c1.504-1.964 4.011-2.368 5.906-1.397-1.863 0.841-3.876 1.325-5.906 1.397zm18.222-5.676c1.227-1.874 2.988-2.871 5.184-2.454-1.567 1.126-3.327 1.968-5.184 2.454zm12.716-27.369c-19.95 11.262-40.421 17.459-59.202 17.921-4.327-3.672 3.462-7.463 5.317-10.857 2.157-2.087 4.007-4.737 5.748-7.19l0.325 0.516c0.12-0.025 4.653-0.951 4.773-0.974 0.886-5.482 0.675-3.995 0.984-6.789 2.112-1.844 4.582-3.191 7.691-3.591l1.397 0.688c1.091 1.367 1.46 1.913 4.634 5.44 0.115-0.044 4.446-1.689 4.561-1.731 0-5.45 0.02-4.252-0.069-6 6.88 1.201 17.838 5.457 21.726 5.457 3.058-0.5 5.117 1.183 5.507 3.012 0.614 2.874-2.392 3.653-3.392 4.098zm4.552 19.233c1.315-1.943 3.586-2.891 5.808-2.702-1.733 1.29-3.717 2.217-5.808 2.702zm16.269-9.624c0.792-2.339 2.408-3.374 4.729-3.414-1.348 1.427-2.962 2.584-4.729 3.414zm15.237-12.295c0.817-2.575 2.479-3.625 4.766-3.508-1.352 1.464-2.976 2.658-4.766 3.508zm13.159-12.885c0.093-1.501 1.562-4.643 4.442-4.764-1.134 1.88-2.646 3.521-4.442 4.764zm5.148-42.053c-9.627 25.501-31.787 47.964-60.544 39.234-0.353-2.15-0.178-1.238-0.811-4.215l0.553-2.428 1.163-1.627 1.642-1.135 1.925-0.495 2.47 0.337c1.001 0.643 2.906 1.905 6.118 3.682 0.098-0.08 3.68-3.005 3.778-3.084-1.757-5.273-1.226-3.79-2.385-6.727l0.159-2.494 0.877-1.788 1.441-1.385 1.829-0.804 2.491-0.066c4.38 1.934 0.942 0.429 6.632 2.661 0.083-0.094 3.146-3.551 3.23-3.644-2.592-4.93-1.83-3.548-3.432-6.269l-0.244-2.482 0.583-1.904 1.196-1.6 1.673-1.09 2.448-0.456c4.52 1.168 4.54 1.006 6.978 1.558l2.605-4.126c-3.344-4.44-2.372-3.202-4.392-5.625l-0.638-2.407 0.267-1.978 0.921-1.77 1.481-1.344 2.343-0.846c2.204 0.196 2.061 0.232 7.13 0.42 0.048-0.112 1.863-4.379 1.911-4.49-4.004-3.85-2.843-2.782-5.242-4.856l-1.017-2.27-0.054-1.996 0.636-1.898 1.236-1.555 2.185-1.21c4.604-0.327 1.014-0.053 7.109-0.73l0.181-0.738c6.069 10.318 7.846 22.847 3.568 33.64zm-10.516-116.64c-5.541 0.236-3.974 0.139-7.13 0.42l-2.343-0.846-1.481-1.344-0.922-1.77-0.265-1.969 0.638-2.416c2.902-3.486 3.09-3.969 4.392-5.625l-2.605-4.126-2.54 0.525 13.593-14.372c11.467 15.796 15.819 34.073 5.616 51.292-0.031-0.126-0.157-0.64-0.187-0.764-5.512-0.661-3.942-0.507-7.109-0.721l-2.185-1.219-1.236-1.555-0.636-1.898 0.054-1.987 1.017-2.279c1.619-1.402 1.654-1.36 5.242-4.856-0.051-0.117-1.864-4.374-1.913-4.49zm17.23 143.17c-0.042-2.232 2.21-4.437 4.411-4.755-1.127 1.875-2.622 3.515-4.411 4.755zm2.03-59.119c-1.455-2.804-3.107-5.523-4.812-8.187l10.966-0.284c-0.718 3.979-1.254 12.157-6.154 8.471zm10.507 38.181c-0.539 1.655-1.347 3.208-2.394 4.588-0.134-1.969 0.774-3.445 2.394-4.588zm-7.456-104.49c1.925 2.708 2.649 6.034 3.105 9.425l-10.912-0.283c2.357-3.85 3.304-9.502 7.807-9.142zm-4.84-59.708c1.908 2.923 1.813 4.541 2.206 5.606-2.61-1.937-2.828-3.797-2.206-5.606zm448.76-557.84 0.644 0.778c-151.58 160.27-81.295 86.39-308.18 323.8 1.952-2.396 2.598-3.516 3.279-4.609l-1.433-1.359c0.125-0.132 4.535-4.797 4.659-4.93-0.136-0.129-9.019-8.531-9.153-8.655-0.125 0.132-19.138 20.24-19.262 20.373 0.136 0.128 9.022 8.531 9.156 8.655l4.662-4.932 1.427 1.351c1.831-1.284 2.462-1.739 4.193-3.309l-63 65.922 0.807-1.292-1.434-1.361c0.125-0.132 4.537-4.799 4.661-4.932-0.136-0.129-9.01-8.519-9.144-8.643-0.125 0.132-19.135 20.231-19.259 20.364 0.136 0.129 9.01 8.531 9.144 8.655l4.658-4.928c0.111 0.104 1.333 1.254 1.444 1.356l0.967-0.684c-73.099 76.489-49.429 51.612-103.91 109.21-8.101-4.416-5.891-11.282-12.715-10.698-10.265 1.322-12.668-6.354-17.017-7.031-1.472-0.319-8.406 1.06-13.899-4.8-0.636-0.788-1.26-1.392-1.892-1.865-4.677-6.1-10.464 2.019-19.624-4.683-2.174-1.854-4.538-2.771-7.393-1.704-11.993 4.952-15.711-6.719-22.161-0.541-9.603 4.171-14.615-3.295-20.118 0.252-1.929 1.344-4.184 2.209-6.504 2.567l-3.752-12.273c0.099-1.003 0.226-1.579-0.17-2.971l-0.335-0.31-0.508-0.033c-5.845-19.118-3.34-11.013-11.806-38.182l2.123-1.077c0.044-0.049 0.798-0.905 0.84-0.956 1e-3 -0.032 0.056-1.347 0.058-1.379l-2.482-8.265c-0.038-0.056-0.857-1.258-0.894-1.314l-1.222-0.319-2.48 0.292c-148.85-477.73-116.32-372.67-163.29-526.31l746.12-32.576 1e-3 0.039c-0.182 0.029-0.369 0.061-0.55 0.089l0.083 0.53c0.159-0.025 0.323-0.053 0.482-0.078l0.012 0.425 48.579-2.007c0.058 0.168 4.812 13.995 4.868 14.161l0.656-0.197 23.939 75.015c-0.181 0.046-1.026 0.262-1.207 0.31l4.663 15.71c-0.111 0.122-37.209 39.221-37.324 39.341zm44.884-204.54c0.168-0.055 1.095-0.358 1.263-0.413l-2.849-8.667 5.406-0.1c-0.518 7.16-0.429 14.608 0.384 22.357l-4.204-13.177zm-3.393-14.579-0.088-0.269c6.627-9.775 1.682-16.433-8.388-22.508l-16.858-47.458 4.862-4.746 75.851-15.709c-0.981 2.144-1.884 4.388-2.696 6.75-21.784 20.914-40.945 48.899-45.001 84.327l-7.682-0.387zm40.111 129.64c-19.486-61.061-32.485-88.652-29.826-124.23l36.528 12.705 6.426-1.469c4.416 22.19 13.638 55.802 22.189 85.255-15.452 2.644-31.739 4.962-38.925 5.86l3.608 21.882zm249.35 1128.4c-270.03 0-489.72-219.69-489.72-489.72 0-185.69 103.88-347.56 256.58-430.58l7.922 18.006c-145.84 79.901-244.95 234.87-244.95 412.56 0 259.2 210.88 470.08 470.08 470.08s470.08-210.88 470.08-470.08c0-296.8-273.65-521.27-566.28-460.17 2.365-3.024 1.351-5.031-0.057-9.41-4.925-10.93-16.946-3.44-33.409-0.627l-1.111-1.724c311.78-86.557 620.57 149.24 620.57 471.94-1e-3 270.03-219.69 489.72-489.72 489.72z"/> </svg>